<svg version="1.1" id="Layer_1" xmlns="http://www.w3.org/2000/svg" xmlns:xlink="http://www.w3.org/1999/xlink" x="0px"
  y="0px" width="100%" viewBox="0 0 512 512" enable-background="new 0 0 512 512" xml:space="preserve">
  <path fill="#273339" opacity="1.000000" stroke="none" d="
M310.094055,428.109619 
	C300.053589,427.404663 290.016479,426.178558 279.971863,426.113434 
	C263.757263,426.008270 247.536926,426.636017 231.321182,427.041809 
	C229.199448,427.094910 227.090637,427.665680 224.447983,427.554932 
	C224.547485,417.780182 223.239487,409.123627 217.611801,401.090729 
	C209.995605,390.219482 203.261261,378.735107 195.909668,367.672546 
	C187.917694,355.646332 179.856049,343.655426 171.432663,331.930817 
	C165.959518,324.312653 158.973785,319.478821 148.946106,323.851746 
	C149.166550,318.811523 148.545547,313.560730 149.745331,308.765564 
	C157.003784,279.756012 170.059250,253.332687 186.898315,228.756195 
	C192.042694,221.248001 198.438934,214.563858 203.239731,206.864975 
	C206.853622,201.069489 209.709290,194.461060 211.262115,187.830353 
	C212.458694,182.720856 211.221863,177.006592 210.859161,171.575119 
	C210.340820,163.812607 209.482056,156.071228 209.045197,148.305283 
	C208.541885,139.357941 207.786179,130.369827 208.170761,121.443825 
	C208.518051,113.383186 209.636246,105.233643 211.521744,97.389450 
	C214.495575,85.017509 222.626205,76.495911 233.999252,71.008163 
	C252.542542,62.060638 271.001770,61.776394 290.325348,69.460831 
	C311.869690,78.028412 319.853699,95.743706 324.935730,116.026451 
	C327.051819,124.471809 326.743134,132.947296 326.259186,141.659393 
	C325.427582,156.631317 330.061157,170.821167 335.803070,184.548752 
	C343.312286,202.501663 355.722870,217.353210 366.618469,233.172348 
	C380.296997,253.031952 390.975098,274.289337 395.821716,298.135529 
	C398.417358,310.906403 395.990448,323.177765 391.546600,335.723969 
	C386.158051,337.586212 381.191803,338.997711 376.075195,340.066345 
	C373.236511,337.520386 370.850861,334.620850 367.784271,333.288025 
	C363.826385,331.567749 359.323883,331.100494 355.182495,329.761292 
	C358.113586,321.131866 361.714996,313.007629 363.559662,304.502350 
	C367.625214,285.757324 363.283478,269.205719 348.297699,256.291992 
	C346.977448,255.154297 345.274567,254.460648 343.749390,253.560760 
	C353.716583,265.872589 359.611847,279.015076 356.979614,294.838043 
	C354.897217,307.355774 349.913147,318.536743 339.998901,326.997009 
	C339.921783,326.914886 339.769379,326.748962 339.702759,326.299103 
	C341.117889,299.427246 337.891418,274.195099 326.163696,249.741318 
	C315.209015,226.899536 306.984711,202.748322 297.642639,178.746429 
	C299.171844,166.755341 299.171844,166.755341 290.070709,161.716049 
	C297.400696,153.599426 298.710815,144.272324 296.662170,134.380249 
	C294.547150,124.167938 286.980408,117.043045 279.170746,117.203552 
	C271.132721,117.368752 263.533600,124.930191 262.088135,135.323318 
	C261.330627,140.770020 262.072723,146.425293 261.723755,152.059296 
	C255.627151,151.692154 249.944351,151.252106 244.323303,150.417145 
	C246.031143,141.893280 245.459076,134.052994 240.638779,127.055908 
	C235.565598,119.691734 227.194687,119.813675 222.065018,127.112175 
	C215.117599,136.996994 216.438614,153.039398 224.714539,161.942154 
	C223.153595,163.405609 221.807617,164.611954 220.419464,165.767609 
	C212.517029,172.346436 212.281754,179.161224 219.738815,186.116653 
	C220.701340,187.014374 221.696335,187.877289 222.574280,189.229874 
	C222.116089,195.017426 222.232544,200.414398 221.317123,205.630280 
	C218.292694,222.863159 210.427521,238.147232 200.252335,252.036987 
	C190.587494,265.230133 184.655014,279.788818 180.973282,295.460693 
	C179.685394,300.942688 178.885330,306.539307 177.862488,312.083618 
	C177.271057,312.061432 176.679611,312.039276 176.088165,312.017120 
	C175.959671,306.469604 175.385696,300.886261 175.828735,295.384766 
	C176.266479,289.948547 177.558136,284.554840 178.795837,279.216797 
	C180.014343,273.961487 181.635147,268.799469 183.079437,263.596497 
	C182.461365,263.386688 181.843307,263.176880 181.225250,262.967102 
	C178.154190,270.962799 174.645325,278.825836 172.167252,287.001312 
	C170.538010,292.376312 170.553467,298.230377 169.550461,303.819305 
	C168.066086,312.090576 168.656784,319.673492 175.342545,325.775208 
	C181.615448,331.500153 187.609818,337.543915 194.059052,343.058777 
	C203.425812,351.068542 213.274643,358.518036 222.574432,366.601593 
	C230.919724,373.855469 229.127304,383.002472 218.980438,387.035706 
	C217.700500,387.544464 216.432251,388.082672 214.573975,388.848022 
	C229.974854,403.976593 248.189514,409.108582 268.487793,406.401123 
	C285.842896,404.086212 300.891541,395.765991 314.949219,386.012329 
	C313.358643,400.344208 311.726349,414.226898 310.094055,428.109619 
z" />
  <path fill="#FFC107" opacity="1.000000" stroke="none" d="
M148.631134,323.978027 
	C158.973785,319.478821 165.959518,324.312653 171.432663,331.930817 
	C179.856049,343.655426 187.917694,355.646332 195.909668,367.672546 
	C203.261261,378.735107 209.995605,390.219482 217.611801,401.090729 
	C223.239487,409.123627 224.547485,417.780182 224.028442,427.568359 
	C222.182816,448.420227 207.994370,454.486389 191.116211,451.255676 
	C179.703064,449.071045 169.007385,443.382538 157.736328,440.147858 
	C144.227722,436.271027 130.431793,433.403198 116.795830,429.957764 
	C112.432480,428.855286 108.061623,427.599945 103.905441,425.898499 
	C95.494614,422.455383 92.944221,414.771240 96.834282,405.629761 
	C96.962463,405.328491 96.922546,404.920166 97.113510,404.686249 
	C105.481857,394.436005 103.027527,383.522705 99.206703,372.465210 
	C98.261894,369.730927 97.126167,366.831055 97.196831,364.035553 
	C97.286911,360.472107 98.566582,357.000549 102.837845,355.965668 
	C107.072792,354.939606 111.238121,353.493713 115.526741,352.847687 
	C126.300003,351.224762 132.728561,344.020966 138.661087,335.868530 
	C141.640961,331.773560 145.083069,328.015015 148.631134,323.978027 
z" />
  <path fill="#FFC107" opacity="1.000000" stroke="none" d="
M376.225586,340.409210 
	C381.191803,338.997711 386.158051,337.586212 391.502930,336.117920 
	C398.696045,339.934692 399.317200,347.259888 399.700226,353.452881 
	C400.615540,368.251007 410.230469,375.283813 421.758423,380.845062 
	C428.571716,384.131927 431.024872,392.141937 425.200012,397.012146 
	C419.150085,402.070526 412.134033,406.011688 405.380829,410.182953 
	C389.894684,419.748322 374.265289,429.036987 360.805634,441.543091 
	C355.481781,446.489807 348.858795,449.301392 341.249939,449.024841 
	C336.427979,448.849579 331.437134,449.673706 326.805237,448.700989 
	C318.054626,446.863312 312.797882,440.961914 310.991058,432.117584 
	C310.767426,431.022797 310.406281,429.956055 310.101440,428.492981 
	C311.726349,414.226898 313.358643,400.344208 315.029205,385.629578 
	C315.381165,382.663300 315.896759,380.536255 315.974762,378.393311 
	C316.380096,367.256622 316.530548,356.108887 317.072052,344.979736 
	C317.312439,340.039062 318.861938,335.173706 323.617615,332.814575 
	C328.570557,330.357666 333.333282,331.881195 337.470428,335.373383 
	C337.851196,335.694794 338.253296,335.990906 338.803467,336.528137 
	C340.151367,340.573395 342.190796,344.358398 342.330902,348.212433 
	C342.537903,353.904083 343.802155,356.564362 349.238098,357.828308 
	C356.642426,359.549957 365.512329,356.149994 369.860504,349.869659 
	C372.023834,346.745026 374.106445,343.564453 376.225586,340.409210 
z" />
  <path fill="#EBEEF0" opacity="1.000000" stroke="none" d="
M338.645508,336.298737 
	C338.253296,335.990906 337.851196,335.694794 337.470428,335.373383 
	C333.333282,331.881195 328.570557,330.357666 323.617615,332.814575 
	C318.861938,335.173706 317.312439,340.039062 317.072052,344.979736 
	C316.530548,356.108887 316.380096,367.256622 315.974762,378.393311 
	C315.896759,380.536255 315.381165,382.663300 314.987488,385.180420 
	C300.891541,395.765991 285.842896,404.086212 268.487793,406.401123 
	C248.189514,409.108582 229.974854,403.976593 214.573975,388.848022 
	C216.432251,388.082672 217.700500,387.544464 218.980438,387.035706 
	C229.127304,383.002472 230.919724,373.855469 222.574432,366.601593 
	C213.274643,358.518036 203.425812,351.068542 194.059052,343.058777 
	C187.609818,337.543915 181.615448,331.500153 175.342545,325.775208 
	C168.656784,319.673492 168.066086,312.090576 169.550461,303.819305 
	C170.553467,298.230377 170.538010,292.376312 172.167252,287.001312 
	C174.645325,278.825836 178.154190,270.962799 181.225250,262.967102 
	C181.843307,263.176880 182.461365,263.386688 183.079437,263.596497 
	C181.635147,268.799469 180.014343,273.961487 178.795837,279.216797 
	C177.558136,284.554840 176.266479,289.948547 175.828735,295.384766 
	C175.385696,300.886261 175.959671,306.469604 176.088165,312.017120 
	C176.679611,312.039276 177.271057,312.061432 177.862488,312.083618 
	C178.885330,306.539307 179.685394,300.942688 180.973282,295.460693 
	C184.655014,279.788818 190.587494,265.230133 200.252335,252.036987 
	C210.427521,238.147232 218.292694,222.863159 221.317123,205.630280 
	C222.232544,200.414398 222.116089,195.017426 222.861816,189.367874 
	C226.363022,191.747620 229.366150,194.602341 232.619965,197.134995 
	C235.326691,199.241791 238.111816,202.027847 241.239471,202.666946 
	C250.461548,204.551453 259.613281,204.411819 268.188660,199.219711 
	C274.552002,195.366913 281.573547,192.578369 287.823792,188.570251 
	C291.546509,186.182999 294.344788,182.354187 297.558655,179.173431 
	C306.984711,202.748322 315.209015,226.899536 326.163696,249.741318 
	C337.891418,274.195099 341.117889,299.427246 339.509644,326.400879 
	C339.460297,327.201233 339.537445,327.449921 339.614624,327.698639 
	C339.768402,327.492126 339.922211,327.285614 340.076019,327.079102 
	C349.913147,318.536743 354.897217,307.355774 356.979614,294.838043 
	C359.611847,279.015076 353.716583,265.872589 343.749390,253.560760 
	C345.274567,254.460648 346.977448,255.154297 348.297699,256.291992 
	C363.283478,269.205719 367.625214,285.757324 363.559662,304.502350 
	C361.714996,313.007629 358.113586,321.131866 354.768188,329.838898 
	C348.486877,330.858002 342.374146,330.508240 338.645508,336.298737 
z" />
  <path fill="#FCBF08" opacity="1.000000" stroke="none" d="
M297.642639,178.746429 
	C294.344788,182.354187 291.546509,186.182999 287.823792,188.570251 
	C281.573547,192.578369 274.552002,195.366913 268.188660,199.219711 
	C259.613281,204.411819 250.461548,204.551453 241.239471,202.666946 
	C238.111816,202.027847 235.326691,199.241791 232.619965,197.134995 
	C229.366150,194.602341 226.363022,191.747620 222.963806,188.894348 
	C221.696335,187.877289 220.701340,187.014374 219.738815,186.116653 
	C212.281754,179.161224 212.517029,172.346436 220.419464,165.767609 
	C221.807617,164.611954 223.153595,163.405609 225.023560,161.867615 
	C227.185852,160.126831 228.843658,158.741119 230.794189,157.213501 
	C233.531998,155.663147 235.977097,154.254700 238.852570,152.738922 
	C240.942459,152.025085 242.602005,151.418564 244.261536,150.812073 
	C249.944351,151.252106 255.627151,151.692154 261.662811,152.067627 
	C262.015656,152.003052 261.990875,151.881989 262.042969,152.111176 
	C262.322601,152.603867 262.607117,152.701599 263.325012,152.797562 
	C265.507294,153.310913 267.313171,153.660263 269.072723,154.006927 
	C269.026428,154.004242 269.031586,153.911621 268.906799,154.242096 
	C269.212494,154.742615 269.642944,154.912659 270.375000,155.246689 
	C274.029510,156.871277 277.382507,158.331909 281.123596,159.889191 
	C284.310242,160.663071 287.108734,161.340332 289.907257,162.017593 
	C299.171844,166.755341 299.171844,166.755341 297.642639,178.746429 
M289.725983,168.662476 
	C286.831787,169.488434 283.751343,169.926941 281.077972,171.212173 
	C272.690826,175.244370 264.742706,180.355209 256.084351,183.612015 
	C247.191437,186.957062 237.739502,186.854141 229.038635,181.961700 
	C225.386978,179.908386 221.979889,177.420197 218.461609,175.129700 
	C224.163696,183.380005 231.157806,189.292252 241.658264,189.980484 
	C253.803467,190.776550 264.105194,185.911224 274.073975,180.048172 
	C279.574677,176.812958 284.699982,172.939407 289.725983,168.662476 
z" />
  <path fill="#E7EAEB" opacity="1.000000" stroke="none" d="
M269.119019,154.009613 
	C267.313171,153.660263 265.507294,153.310913 263.262665,152.516937 
	C262.546204,152.008850 262.268555,151.945419 261.990875,151.881989 
	C261.990875,151.881989 262.015656,152.003052 262.076599,151.994720 
	C262.072723,146.425293 261.330627,140.770020 262.088135,135.323318 
	C263.533600,124.930191 271.132721,117.368752 279.170746,117.203552 
	C286.980408,117.043045 294.547150,124.167938 296.662170,134.380249 
	C298.710815,144.272324 297.400696,153.599426 290.070709,161.716049 
	C287.108734,161.340332 284.310242,160.663071 281.366211,159.643677 
	C288.042847,155.434402 290.772339,147.809967 287.924561,140.190140 
	C286.251404,135.713242 283.331635,132.230133 278.220001,132.291550 
	C273.385406,132.349655 269.843994,135.498489 269.057037,139.979401 
	C268.260895,144.512695 269.033569,149.321487 269.119019,154.009613 
z" />
  <path fill="#485C63" opacity="1.000000" stroke="none" d="
M338.803467,336.528137 
	C342.374146,330.508240 348.486877,330.858002 354.641602,330.171234 
	C359.323883,331.100494 363.826385,331.567749 367.784271,333.288025 
	C370.850861,334.620850 373.236511,337.520386 376.075195,340.066345 
	C374.106445,343.564453 372.023834,346.745026 369.860504,349.869659 
	C365.512329,356.149994 356.642426,359.549957 349.238098,357.828308 
	C343.802155,356.564362 342.537903,353.904083 342.330902,348.212433 
	C342.190796,344.358398 340.151367,340.573395 338.803467,336.528137 
z" />
  <path fill="#E6E9EB" opacity="1.000000" stroke="none" d="
M244.323303,150.417130 
	C242.602005,151.418564 240.942459,152.025085 239.011398,152.243134 
	C239.656662,146.278992 239.588135,140.751755 235.966339,136.124161 
	C234.701675,134.508270 232.138367,132.840714 230.340378,133.011368 
	C228.550690,133.181259 226.317749,135.307953 225.427826,137.135849 
	C222.274414,143.612854 224.750580,152.646317 230.501465,157.355423 
	C228.843658,158.741119 227.185852,160.126831 225.219025,161.587097 
	C216.438614,153.039398 215.117599,136.996994 222.065018,127.112175 
	C227.194687,119.813675 235.565598,119.691734 240.638779,127.055908 
	C245.459076,134.052994 246.031143,141.893280 244.323303,150.417130 
z" />
  <path fill="#273339" opacity="1.000000" stroke="none" d="
M339.998901,326.997009 
	C339.922211,327.285614 339.768402,327.492126 339.614624,327.698639 
	C339.537445,327.449921 339.460297,327.201233 339.576233,326.850739 
	C339.769379,326.748962 339.921783,326.914886 339.998901,326.997009 
z" />
  <path fill="#252525" opacity="1.000000" stroke="none" d="
M269.072754,154.006927 
	C269.033569,149.321487 268.260895,144.512695 269.057037,139.979401 
	C269.843994,135.498489 273.385406,132.349655 278.220001,132.291550 
	C283.331635,132.230133 286.251404,135.713242 287.924561,140.190140 
	C290.772339,147.809967 288.042847,155.434402 280.978088,159.547043 
	C277.382507,158.331909 274.029510,156.871277 270.303589,154.959320 
	C269.630981,154.309204 269.331268,154.110413 269.031586,153.911621 
	C269.031586,153.911621 269.026428,154.004242 269.072754,154.006927 
z" />
  <path fill="#6E5003" opacity="1.000000" stroke="none" d="
M289.860260,169.008057 
	C284.699982,172.939407 279.574677,176.812958 274.073975,180.048172 
	C264.105194,185.911224 253.803467,190.776550 241.658264,189.980484 
	C231.157806,189.292252 224.163696,183.380005 218.461609,175.129700 
	C221.979889,177.420197 225.386978,179.908386 229.038635,181.961700 
	C237.739502,186.854141 247.191437,186.957062 256.084351,183.612015 
	C264.742706,180.355209 272.690826,175.244370 281.077972,171.212173 
	C283.751343,169.926941 286.831787,169.488434 289.860260,169.008057 
z" />
  <path fill="#262625" opacity="1.000000" stroke="none" d="
M230.794189,157.213501 
	C224.750580,152.646317 222.274414,143.612854 225.427826,137.135849 
	C226.317749,135.307953 228.550690,133.181259 230.340378,133.011368 
	C232.138367,132.840714 234.701675,134.508270 235.966339,136.124161 
	C239.588135,140.751755 239.656662,146.278992 238.581024,152.350449 
	C235.977097,154.254700 233.531998,155.663147 230.794189,157.213501 
z" />
  <path fill="#273339" opacity="1.000000" stroke="none" d="
M262.042969,152.111176 
	C262.268555,151.945419 262.546204,152.008850 262.886230,152.352905 
	C262.607117,152.701599 262.322601,152.603867 262.042969,152.111176 
z" />
  <path fill="#E7EAEB" opacity="1.000000" stroke="none" d="
M268.906799,154.242096 
	C269.331268,154.110413 269.630981,154.309204 270.002045,154.795349 
	C269.642944,154.912659 269.212494,154.742615 268.906799,154.242096 
z" />
</svg>
